<svg width="16" height="17" viewBox="0 0 16 17" fill="none" xmlns="http://www.w3.org/2000/svg">
<g clip-path="url(#clip0_145_371)">
<path d="M15.3333 5.16629H12.1273L12.6607 1.25629C12.6725 1.16953 12.6671 1.08129 12.6448 0.996611C12.6225 0.911932 12.5838 0.832472 12.5308 0.762766C12.4778 0.69306 12.4116 0.634474 12.336 0.590353C12.2603 0.546232 12.1768 0.51744 12.09 0.505621C12.0032 0.493802 11.915 0.499188 11.8303 0.52147C11.7456 0.543752 11.6662 0.582495 11.5965 0.635487C11.5268 0.688478 11.4682 0.75468 11.4241 0.830313C11.3799 0.905946 11.3512 0.989528 11.3393 1.07629L10.782 5.16629H6.12733L6.66067 1.25629C6.67249 1.16953 6.6671 1.08129 6.64482 0.996611C6.62254 0.911932 6.58379 0.832472 6.5308 0.762766C6.47781 0.69306 6.41161 0.634474 6.33598 0.590353C6.26034 0.546232 6.17676 0.51744 6.09 0.505621C6.00324 0.493802 5.915 0.499188 5.83032 0.52147C5.74564 0.543752 5.66618 0.582495 5.59648 0.635487C5.52677 0.688478 5.46819 0.75468 5.42407 0.830313C5.37994 0.905946 5.35115 0.989528 5.33933 1.07629L4.782 5.16629H1.33333C1.15652 5.16629 0.986953 5.23653 0.861929 5.36155C0.736905 5.48657 0.666667 5.65614 0.666667 5.83296C0.666667 6.00977 0.736905 6.17934 0.861929 6.30436C0.986953 6.42938 1.15652 6.49962 1.33333 6.49962H4.6L4.05467 10.4996H0.666667C0.489856 10.4996 0.320286 10.5699 0.195262 10.6949C0.0702379 10.8199 0 10.9895 0 11.1663C0 11.3431 0.0702379 11.5127 0.195262 11.6377C0.320286 11.7627 0.489856 11.833 0.666667 11.833H3.87267L3.33933 15.743C3.31546 15.9182 3.36218 16.0957 3.4692 16.2365C3.57622 16.3773 3.73478 16.4698 3.91 16.4936C4.08522 16.5175 4.26274 16.4708 4.40352 16.3638C4.5443 16.2567 4.6368 16.0982 4.66067 15.923L5.218 11.833H9.87267L9.33933 15.743C9.31546 15.9182 9.36218 16.0957 9.4692 16.2365C9.57622 16.3773 9.73478 16.4698 9.91 16.4936C10.0852 16.5175 10.2627 16.4708 10.4035 16.3638C10.5443 16.2567 10.6368 16.0982 10.6607 15.923L11.218 11.833H14.6667C14.8435 11.833 15.013 11.7627 15.1381 11.6377C15.2631 11.5127 15.3333 11.3431 15.3333 11.1663C15.3333 10.9895 15.2631 10.8199 15.1381 10.6949C15.013 10.5699 14.8435 10.4996 14.6667 10.4996H11.4L11.9453 6.49962H15.3333C15.5101 6.49962 15.6797 6.42938 15.8047 6.30436C15.9298 6.17934 16 6.00977 16 5.83296C16 5.65614 15.9298 5.48657 15.8047 5.36155C15.6797 5.23653 15.5101 5.16629 15.3333 5.16629ZM10.0547 10.4996H5.4L5.94533 6.49962H10.6L10.0547 10.4996Z" fill="currentColor"/>
</g>
<defs>
<clipPath id="clip0_145_371">
<rect width="16" height="16" fill="white" transform="translate(0 0.5)"/>
</clipPath>
</defs>
</svg>
