<svg width="80" height="80" viewBox="0 0 80 80" fill="none" xmlns="http://www.w3.org/2000/svg">
<rect width="80" height="80" rx="15" fill="#1D4ED8"/>
<g clip-path="url(#clip0_51_547)">
<path d="M56.5607 26.5343L49.3024 19.2718C47.951 17.9137 46.3438 16.8371 44.5737 16.104C42.8036 15.3709 40.9058 14.996 38.9899 15.0009H29.5837C26.822 15.0043 24.1744 16.1028 22.2216 18.0556C20.2688 20.0084 19.1703 22.656 19.167 25.4176V54.5843C19.1703 57.3459 20.2688 59.9935 22.2216 61.9463C24.1744 63.8991 26.822 64.9976 29.5837 65.0009H50.417C53.1786 64.9976 55.8262 63.8991 57.779 61.9463C59.7318 59.9935 60.8303 57.3459 60.8337 54.5843V36.8447C60.8388 34.9289 60.4638 33.0311 59.7304 31.2613C58.9969 29.4915 57.9196 27.8848 56.5607 26.5343V26.5343ZM53.6149 29.4801C54.2511 30.1346 54.7981 30.8701 55.242 31.6676H46.2503C45.6978 31.6676 45.1679 31.4481 44.7772 31.0574C44.3865 30.6667 44.167 30.1368 44.167 29.5843V20.5926C44.9648 21.0362 45.7009 21.5825 46.3566 22.2176L53.6149 29.4801ZM56.667 54.5843C56.667 56.2419 56.0085 57.8316 54.8364 59.0037C53.6643 60.1758 52.0746 60.8343 50.417 60.8343H29.5837C27.9261 60.8343 26.3363 60.1758 25.1642 59.0037C23.9921 57.8316 23.3337 56.2419 23.3337 54.5843V25.4176C23.3337 23.76 23.9921 22.1703 25.1642 20.9982C26.3363 19.8261 27.9261 19.1676 29.5837 19.1676H38.9899C39.3316 19.1676 39.6628 19.2343 40.0003 19.2655V29.5843C40.0003 31.2419 40.6588 32.8316 41.8309 34.0037C43.003 35.1758 44.5927 35.8343 46.2503 35.8343H56.5691C56.6003 36.1718 56.667 36.5009 56.667 36.8447V54.5843Z" fill="white"/>
</g>
<defs>
<clipPath id="clip0_51_547">
<rect width="50" height="50" fill="white" transform="translate(15 15)"/>
</clipPath>
</defs>
</svg>
