<svg width="99" height="121" viewBox="0 0 99 121" fill="none" xmlns="http://www.w3.org/2000/svg">
<path fill-rule="evenodd" clip-rule="evenodd" d="M40.204 17.0987C40.204 17.0987 34.9191 20.9348 34.546 25.4156C34.1728 29.8965 39.6029 33.3937 39.6029 33.3937L52.9503 27.2486L40.204 17.0987Z" fill="#FFB200"/>
<path fill-rule="evenodd" clip-rule="evenodd" d="M67.734 45.9073C67.734 35.7326 59.4858 27.4843 49.311 27.4843C39.1362 27.4843 30.8879 35.7326 30.8879 45.9073H67.734Z" fill="#02A0FC"/>
<path fill-rule="evenodd" clip-rule="evenodd" d="M51.3296 30.8894L51.0002 21.5623C51.0002 21.5623 54.6036 19.7075 53.9463 17.1221C53.289 14.5366 50.6505 15.6966 50.6505 15.6966C50.6505 15.6966 49.3827 12.1525 45.5592 11.8871C41.7356 11.6217 39.6529 16.0229 39.9386 19.069C40.3633 23.5608 42.5709 25.6623 47.0642 24.6365L46.9081 29.8621" fill="#FF3A29"/>
<path d="M42.5319 18.9925L41.7903 21.0175" stroke="black" stroke-width="0.675"/>
<path d="M45.4549 18.379L43.3003 18.2962" stroke="black" stroke-width="0.675"/>
<path d="M40.6694 18.393L41.9747 18.2822" stroke="black" stroke-width="0.675"/>
<path fill-rule="evenodd" clip-rule="evenodd" d="M51.2127 27.5811C46.9629 27.0112 48.8957 15.1299 48.8957 15.1299C44.7974 17.5234 40.2041 16.4539 40.2041 16.4539C40.2041 16.4539 41.3688 10.0371 48.3227 10.8177C55.2767 11.5983 56.8098 16.0464 56.8098 16.0464C56.8098 16.0464 64.2446 17.845 64.3461 23.8528C64.4476 29.8606 59.9745 30.8879 59.9745 30.8879C59.9745 30.8879 55.8653 28.2056 51.2127 27.5811Z" fill="#FFB200"/>
<path d="M28.4384 44.4913C28.4384 44.4913 9.79989 45.8371 7.42987 41.3531C5.05986 36.8691 7.94197 12.1167 7.94197 12.1167C7.94197 12.1167 5.12387 5.35635 6.53682 4.52263C7.94978 3.68891 10.44 10.3524 10.44 10.3524C10.44 10.3524 8.83814 1.0644 10.312 1.00039C11.7858 0.936379 13.7062 8.75056 13.7062 8.75056C13.7062 8.75056 15.2675 5.18929 18.9271 6.10888C21.6016 6.78023 22.2573 9.59833 21.3408 10.0355C20.0262 10.66 19.0942 8.73807 17.6781 9.26266C16.6039 9.65922 16.4291 10.9442 16.8163 11.8622C17.3471 13.119 18.6164 13.6342 19.7436 12.7693C20.7397 12.0058 20.212 10.5913 21.3408 10.0355C22.6867 9.37507 24.0231 12.5039 22.1215 14.9722C20.3432 17.2767 16.2729 16.7474 16.2729 16.7474L16.1262 32.5038L30.5399 33.0487" stroke="black" stroke-width="0.675"/>
<path d="M70.1839 44.4913C70.1839 44.4913 88.8239 45.8371 91.1924 41.3531C93.5608 36.8691 90.6803 12.1167 90.6803 12.1167C90.6803 12.1167 93.4906 5.35635 92.0854 4.52263C90.6803 3.68891 88.1823 10.3524 88.1823 10.3524C88.1823 10.3524 89.7841 1.0644 88.3103 1.00039C86.8364 0.936379 84.9161 8.75056 84.9161 8.75056C84.9161 8.75056 83.3548 5.18929 79.6952 6.10888C77.0223 6.78023 76.365 9.59833 77.2814 10.0355C78.596 10.66 79.5281 8.73807 80.9442 9.26266C82.0183 9.65922 82.1932 10.9442 81.806 11.8622C81.2752 13.119 80.0074 13.6342 78.8786 12.7693C77.8825 12.0043 78.4102 10.5913 77.2814 10.0355C75.9356 9.37507 74.5992 12.5039 76.5008 14.9707C78.2791 17.2767 82.1932 16.585 82.1932 16.585L82.34 32.3414L67.9263 32.8863" stroke="black" stroke-width="0.675"/>
<path fill-rule="evenodd" clip-rule="evenodd" d="M61.6638 57.0627C54.0259 52.6271 44.5961 52.6271 36.9582 57.0627C28.8755 61.7574 17.8966 68.1868 7.08945 74.5302C-4.96047 81.6028 -0.791868 99.979 13.13 101.161L43.0394 103.698L47.0721 119.267C47.6701 121.578 50.9519 121.578 51.5499 119.267L55.5842 103.698L85.492 101.161C99.4155 99.979 103.582 81.6028 91.5326 74.5302C80.7254 68.1868 69.7465 61.7574 61.6638 57.0627ZM25.0752 84.5786L42.4053 78.0681C46.855 76.3959 51.7605 76.3959 56.2101 78.0681L73.5403 84.5786H25.0752Z" fill="#FF3A29"/>
<path d="M49.3112 121V84.5786" stroke="white" stroke-width="0.675"/>
</svg>
