<svg width="98" height="30" viewBox="0 0 98 30" fill="none" xmlns="http://www.w3.org/2000/svg">
<g clip-path="url(#clip0_28_73)">
<path d="M2.50002 13.75H16.25C17.6307 13.75 18.75 12.6307 18.75 11.25V2.50002C18.75 1.11932 17.6307 0 16.25 0H2.50002C1.11932 0 0 1.11932 0 2.50002V11.25C0 12.6307 1.11932 13.75 2.50002 13.75Z" fill="#1D4ED8"/>
<path d="M29.5725 1.1025C29.1079 0.41332 28.3311 0.000117188 27.5 0H23.75C22.3693 0 21.25 1.11932 21.25 2.50002V11.25C21.25 12.6307 22.3693 13.75 23.75 13.75H27.5C28.8808 13.75 30 12.6307 30 11.25V2.50002C30.0008 2.00186 29.8519 1.51494 29.5725 1.1025Z" fill="#1D4ED8"/>
<path d="M7.64748 16.6774C7.23504 16.398 6.74813 16.2491 6.24996 16.2499H2.49996C1.11932 16.2499 0 17.3692 0 18.7499V27.4999C0 28.8807 1.11932 29.9999 2.50002 29.9999H6.25002C7.63072 29.9999 8.75004 28.8806 8.75004 27.4999V18.7499C8.74986 17.9188 8.33666 17.1421 7.64748 16.6774Z" fill="#1D4ED8"/>
<path d="M28.8975 16.6774C28.4851 16.398 27.9981 16.2491 27.5 16.2499H13.75C12.3693 16.2499 11.25 17.3692 11.25 18.7499V27.4999C11.25 28.8807 12.3693 29.9999 13.75 29.9999H27.5C28.8807 29.9999 30 28.8807 30 27.4999V18.7499C29.9999 17.9188 29.5867 17.1421 28.8975 16.6774Z" fill="#1D4ED8"/>
</g>
<path d="M42.96 21.112C42.1813 21.112 41.4773 20.9787 40.848 20.712C40.2293 20.4453 39.7387 20.0613 39.376 19.56C39.0133 19.0587 38.8267 18.4667 38.816 17.784H41.216C41.248 18.2427 41.408 18.6053 41.696 18.872C41.9947 19.1387 42.4 19.272 42.912 19.272C43.4347 19.272 43.8453 19.1493 44.144 18.904C44.4427 18.648 44.592 18.3173 44.592 17.912C44.592 17.5813 44.4907 17.3093 44.288 17.096C44.0853 16.8827 43.8293 16.7173 43.52 16.6C43.2213 16.472 42.8053 16.3333 42.272 16.184C41.5467 15.9707 40.9547 15.7627 40.496 15.56C40.048 15.3467 39.6587 15.032 39.328 14.616C39.008 14.1893 38.848 13.624 38.848 12.92C38.848 12.2587 39.0133 11.6827 39.344 11.192C39.6747 10.7013 40.1387 10.328 40.736 10.072C41.3333 9.80533 42.016 9.672 42.784 9.672C43.936 9.672 44.8693 9.95467 45.584 10.52C46.3093 11.0747 46.7093 11.8533 46.784 12.856H44.32C44.2987 12.472 44.1333 12.1573 43.824 11.912C43.5253 11.656 43.1253 11.528 42.624 11.528C42.1867 11.528 41.8347 11.64 41.568 11.864C41.312 12.088 41.184 12.4133 41.184 12.84C41.184 13.1387 41.28 13.3893 41.472 13.592C41.6747 13.784 41.92 13.944 42.208 14.072C42.5067 14.1893 42.9227 14.328 43.456 14.488C44.1813 14.7013 44.7733 14.9147 45.232 15.128C45.6907 15.3413 46.0853 15.6613 46.416 16.088C46.7467 16.5147 46.912 17.0747 46.912 17.768C46.912 18.3653 46.7573 18.92 46.448 19.432C46.1387 19.944 45.6853 20.3547 45.088 20.664C44.4907 20.9627 43.7813 21.112 42.96 21.112ZM51.094 13.416C51.382 13.0107 51.7767 12.6747 52.278 12.408C52.79 12.1307 53.3713 11.992 54.022 11.992C54.7793 11.992 55.462 12.1787 56.07 12.552C56.6887 12.9253 57.174 13.4587 57.526 14.152C57.8887 14.8347 58.07 15.6293 58.07 16.536C58.07 17.4427 57.8887 18.248 57.526 18.952C57.174 19.6453 56.6887 20.184 56.07 20.568C55.462 20.952 54.7793 21.144 54.022 21.144C53.3713 21.144 52.7953 21.0107 52.294 20.744C51.8033 20.4773 51.4033 20.1413 51.094 19.736V25.224H48.854V12.136H51.094V13.416ZM55.782 16.536C55.782 16.0027 55.67 15.544 55.446 15.16C55.2327 14.7653 54.9447 14.4667 54.582 14.264C54.23 14.0613 53.846 13.96 53.43 13.96C53.0247 13.96 52.6407 14.0667 52.278 14.28C51.926 14.4827 51.638 14.7813 51.414 15.176C51.2007 15.5707 51.094 16.0347 51.094 16.568C51.094 17.1013 51.2007 17.5653 51.414 17.96C51.638 18.3547 51.926 18.6587 52.278 18.872C52.6407 19.0747 53.0247 19.176 53.43 19.176C53.846 19.176 54.23 19.0693 54.582 18.856C54.9447 18.6427 55.2327 18.3387 55.446 17.944C55.67 17.5493 55.782 17.08 55.782 16.536ZM59.1217 16.536C59.1217 15.64 59.2977 14.8453 59.6497 14.152C60.0124 13.4587 60.4978 12.9253 61.1058 12.552C61.7244 12.1787 62.4124 11.992 63.1698 11.992C63.8311 11.992 64.4071 12.1253 64.8978 12.392C65.3991 12.6587 65.7991 12.9947 66.0978 13.4V12.136H68.3538V21H66.0978V19.704C65.8098 20.12 65.4098 20.4667 64.8978 20.744C64.3964 21.0107 63.8151 21.144 63.1538 21.144C62.4071 21.144 61.7244 20.952 61.1058 20.568C60.4978 20.184 60.0124 19.6453 59.6497 18.952C59.2977 18.248 59.1217 17.4427 59.1217 16.536ZM66.0978 16.568C66.0978 16.024 65.9911 15.56 65.7778 15.176C65.5644 14.7813 65.2764 14.4827 64.9138 14.28C64.5511 14.0667 64.1618 13.96 63.7458 13.96C63.3298 13.96 62.9458 14.0613 62.5938 14.264C62.2418 14.4667 61.9538 14.7653 61.7298 15.16C61.5164 15.544 61.4098 16.0027 61.4098 16.536C61.4098 17.0693 61.5164 17.5387 61.7298 17.944C61.9538 18.3387 62.2418 18.6427 62.5938 18.856C62.9564 19.0693 63.3404 19.176 63.7458 19.176C64.1618 19.176 64.5511 19.0747 64.9138 18.872C65.2764 18.6587 65.5644 18.36 65.7778 17.976C65.9911 17.5813 66.0978 17.112 66.0978 16.568ZM69.9655 16.568C69.9655 15.6507 70.1522 14.8507 70.5255 14.168C70.8988 13.4747 71.4162 12.9413 72.0775 12.568C72.7388 12.184 73.4962 11.992 74.3495 11.992C75.4482 11.992 76.3548 12.2693 77.0695 12.824C77.7948 13.368 78.2802 14.136 78.5255 15.128H76.1095C75.9815 14.744 75.7628 14.4453 75.4535 14.232C75.1548 14.008 74.7815 13.896 74.3335 13.896C73.6935 13.896 73.1868 14.1307 72.8135 14.6C72.4402 15.0587 72.2535 15.7147 72.2535 16.568C72.2535 17.4107 72.4402 18.0667 72.8135 18.536C73.1868 18.9947 73.6935 19.224 74.3335 19.224C75.2402 19.224 75.8322 18.8187 76.1095 18.008H78.5255C78.2802 18.968 77.7948 19.7307 77.0695 20.296C76.3442 20.8613 75.4375 21.144 74.3495 21.144C73.4962 21.144 72.7388 20.9573 72.0775 20.584C71.4162 20.2 70.8988 19.6667 70.5255 18.984C70.1522 18.2907 69.9655 17.4853 69.9655 16.568ZM88.4065 16.376C88.4065 16.696 88.3852 16.984 88.3425 17.24H81.8625C81.9158 17.88 82.1398 18.3813 82.5345 18.744C82.9292 19.1067 83.4145 19.288 83.9905 19.288C84.8225 19.288 85.4145 18.9307 85.7665 18.216H88.1825C87.9265 19.0693 87.4358 19.7733 86.7105 20.328C85.9852 20.872 85.0945 21.144 84.0385 21.144C83.1852 21.144 82.4172 20.9573 81.7345 20.584C81.0625 20.2 80.5345 19.6613 80.1505 18.968C79.7772 18.2747 79.5905 17.4747 79.5905 16.568C79.5905 15.6507 79.7772 14.8453 80.1505 14.152C80.5238 13.4587 81.0465 12.9253 81.7185 12.552C82.3905 12.1787 83.1638 11.992 84.0385 11.992C84.8812 11.992 85.6332 12.1733 86.2945 12.536C86.9665 12.8987 87.4838 13.416 87.8465 14.088C88.2198 14.7493 88.4065 15.512 88.4065 16.376ZM86.0865 15.736C86.0758 15.16 85.8678 14.7013 85.4625 14.36C85.0572 14.008 84.5612 13.832 83.9745 13.832C83.4198 13.832 82.9505 14.0027 82.5665 14.344C82.1932 14.6747 81.9638 15.1387 81.8785 15.736H86.0865ZM93.4335 21.144C92.7082 21.144 92.0575 21.016 91.4815 20.76C90.9055 20.4933 90.4468 20.136 90.1055 19.688C89.7748 19.24 89.5935 18.744 89.5615 18.2H91.8175C91.8602 18.5413 92.0255 18.824 92.3135 19.048C92.6122 19.272 92.9802 19.384 93.4175 19.384C93.8442 19.384 94.1748 19.2987 94.4095 19.128C94.6548 18.9573 94.7775 18.7387 94.7775 18.472C94.7775 18.184 94.6282 17.9707 94.3295 17.832C94.0415 17.6827 93.5775 17.5227 92.9375 17.352C92.2762 17.192 91.7322 17.0267 91.3055 16.856C90.8895 16.6853 90.5268 16.424 90.2175 16.072C89.9188 15.72 89.7695 15.2453 89.7695 14.648C89.7695 14.1573 89.9082 13.7093 90.1855 13.304C90.4735 12.8987 90.8788 12.5787 91.4015 12.344C91.9348 12.1093 92.5588 11.992 93.2735 11.992C94.3295 11.992 95.1722 12.2587 95.8015 12.792C96.4308 13.3147 96.7775 14.024 96.8415 14.92H94.6975C94.6655 14.568 94.5162 14.2907 94.2495 14.088C93.9935 13.8747 93.6468 13.768 93.2095 13.768C92.8042 13.768 92.4895 13.8427 92.2655 13.992C92.0522 14.1413 91.9455 14.3493 91.9455 14.616C91.9455 14.9147 92.0948 15.144 92.3935 15.304C92.6922 15.4533 93.1562 15.608 93.7855 15.768C94.4255 15.928 94.9535 16.0933 95.3695 16.264C95.7855 16.4347 96.1428 16.7013 96.4415 17.064C96.7508 17.416 96.9108 17.8853 96.9215 18.472C96.9215 18.984 96.7775 19.4427 96.4895 19.848C96.2122 20.2533 95.8068 20.5733 95.2735 20.808C94.7508 21.032 94.1375 21.144 93.4335 21.144Z" fill="currentColor"/>
<defs>
<clipPath id="clip0_28_73">
<rect width="30" height="30" fill="white"/>
</clipPath>
</defs>
</svg>
