<svg width="98" height="31" viewBox="0 0 98 31" fill="none" xmlns="http://www.w3.org/2000/svg">
<g clip-path="url(#clip0_77_296)">
<path d="M2.50002 14.25H16.25C17.6307 14.25 18.75 13.1307 18.75 11.75V3.00002C18.75 1.61932 17.6307 0.5 16.25 0.5H2.50002C1.11932 0.5 0 1.61932 0 3.00002V11.75C0 13.1307 1.11932 14.25 2.50002 14.25Z" fill="white"/>
<path d="M29.5725 1.6025C29.1079 0.91332 28.3311 0.500117 27.5 0.5H23.75C22.3693 0.5 21.25 1.61932 21.25 3.00002V11.75C21.25 13.1307 22.3693 14.25 23.75 14.25H27.5C28.8808 14.25 30 13.1307 30 11.75V3.00002C30.0008 2.50186 29.8519 2.01494 29.5725 1.6025Z" fill="white"/>
<path d="M7.64748 17.1774C7.23504 16.898 6.74813 16.7491 6.24996 16.7499H2.49996C1.11932 16.7499 0 17.8692 0 19.2499V27.9999C0 29.3807 1.11932 30.4999 2.50002 30.4999H6.25002C7.63072 30.4999 8.75004 29.3806 8.75004 27.9999V19.2499C8.74986 18.4188 8.33666 17.6421 7.64748 17.1774Z" fill="white"/>
<path d="M28.8975 17.1774C28.4851 16.898 27.9981 16.7491 27.5 16.7499H13.75C12.3693 16.7499 11.25 17.8692 11.25 19.2499V27.9999C11.25 29.3807 12.3693 30.4999 13.75 30.4999H27.5C28.8807 30.4999 30 29.3807 30 27.9999V19.2499C29.9999 18.4188 29.5867 17.6421 28.8975 17.1774Z" fill="white"/>
</g>
<path d="M42.96 21.612C42.1813 21.612 41.4773 21.4787 40.848 21.212C40.2293 20.9453 39.7387 20.5613 39.376 20.06C39.0133 19.5587 38.8267 18.9667 38.816 18.284H41.216C41.248 18.7427 41.408 19.1053 41.696 19.372C41.9947 19.6387 42.4 19.772 42.912 19.772C43.4347 19.772 43.8453 19.6493 44.144 19.404C44.4427 19.148 44.592 18.8173 44.592 18.412C44.592 18.0813 44.4907 17.8093 44.288 17.596C44.0853 17.3827 43.8293 17.2173 43.52 17.1C43.2213 16.972 42.8053 16.8333 42.272 16.684C41.5467 16.4707 40.9547 16.2627 40.496 16.06C40.048 15.8467 39.6587 15.532 39.328 15.116C39.008 14.6893 38.848 14.124 38.848 13.42C38.848 12.7587 39.0133 12.1827 39.344 11.692C39.6747 11.2013 40.1387 10.828 40.736 10.572C41.3333 10.3053 42.016 10.172 42.784 10.172C43.936 10.172 44.8693 10.4547 45.584 11.02C46.3093 11.5747 46.7093 12.3533 46.784 13.356H44.32C44.2987 12.972 44.1333 12.6573 43.824 12.412C43.5253 12.156 43.1253 12.028 42.624 12.028C42.1867 12.028 41.8347 12.14 41.568 12.364C41.312 12.588 41.184 12.9133 41.184 13.34C41.184 13.6387 41.28 13.8893 41.472 14.092C41.6747 14.284 41.92 14.444 42.208 14.572C42.5067 14.6893 42.9227 14.828 43.456 14.988C44.1813 15.2013 44.7733 15.4147 45.232 15.628C45.6907 15.8413 46.0853 16.1613 46.416 16.588C46.7467 17.0147 46.912 17.5747 46.912 18.268C46.912 18.8653 46.7573 19.42 46.448 19.932C46.1387 20.444 45.6853 20.8547 45.088 21.164C44.4907 21.4627 43.7813 21.612 42.96 21.612ZM51.094 13.916C51.382 13.5107 51.7767 13.1747 52.278 12.908C52.79 12.6307 53.3713 12.492 54.022 12.492C54.7793 12.492 55.462 12.6787 56.07 13.052C56.6887 13.4253 57.174 13.9587 57.526 14.652C57.8887 15.3347 58.07 16.1293 58.07 17.036C58.07 17.9427 57.8887 18.748 57.526 19.452C57.174 20.1453 56.6887 20.684 56.07 21.068C55.462 21.452 54.7793 21.644 54.022 21.644C53.3713 21.644 52.7953 21.5107 52.294 21.244C51.8033 20.9773 51.4033 20.6413 51.094 20.236V25.724H48.854V12.636H51.094V13.916ZM55.782 17.036C55.782 16.5027 55.67 16.044 55.446 15.66C55.2327 15.2653 54.9447 14.9667 54.582 14.764C54.23 14.5613 53.846 14.46 53.43 14.46C53.0247 14.46 52.6407 14.5667 52.278 14.78C51.926 14.9827 51.638 15.2813 51.414 15.676C51.2007 16.0707 51.094 16.5347 51.094 17.068C51.094 17.6013 51.2007 18.0653 51.414 18.46C51.638 18.8547 51.926 19.1587 52.278 19.372C52.6407 19.5747 53.0247 19.676 53.43 19.676C53.846 19.676 54.23 19.5693 54.582 19.356C54.9447 19.1427 55.2327 18.8387 55.446 18.444C55.67 18.0493 55.782 17.58 55.782 17.036ZM59.1217 17.036C59.1217 16.14 59.2977 15.3453 59.6497 14.652C60.0124 13.9587 60.4978 13.4253 61.1058 13.052C61.7244 12.6787 62.4124 12.492 63.1698 12.492C63.8311 12.492 64.4071 12.6253 64.8978 12.892C65.3991 13.1587 65.7991 13.4947 66.0978 13.9V12.636H68.3538V21.5H66.0978V20.204C65.8098 20.62 65.4098 20.9667 64.8978 21.244C64.3964 21.5107 63.8151 21.644 63.1538 21.644C62.4071 21.644 61.7244 21.452 61.1058 21.068C60.4978 20.684 60.0124 20.1453 59.6497 19.452C59.2977 18.748 59.1217 17.9427 59.1217 17.036ZM66.0978 17.068C66.0978 16.524 65.9911 16.06 65.7778 15.676C65.5644 15.2813 65.2764 14.9827 64.9138 14.78C64.5511 14.5667 64.1618 14.46 63.7458 14.46C63.3298 14.46 62.9458 14.5613 62.5938 14.764C62.2418 14.9667 61.9538 15.2653 61.7298 15.66C61.5164 16.044 61.4098 16.5027 61.4098 17.036C61.4098 17.5693 61.5164 18.0387 61.7298 18.444C61.9538 18.8387 62.2418 19.1427 62.5938 19.356C62.9564 19.5693 63.3404 19.676 63.7458 19.676C64.1618 19.676 64.5511 19.5747 64.9138 19.372C65.2764 19.1587 65.5644 18.86 65.7778 18.476C65.9911 18.0813 66.0978 17.612 66.0978 17.068ZM69.9655 17.068C69.9655 16.1507 70.1522 15.3507 70.5255 14.668C70.8988 13.9747 71.4162 13.4413 72.0775 13.068C72.7388 12.684 73.4962 12.492 74.3495 12.492C75.4482 12.492 76.3548 12.7693 77.0695 13.324C77.7948 13.868 78.2802 14.636 78.5255 15.628H76.1095C75.9815 15.244 75.7628 14.9453 75.4535 14.732C75.1548 14.508 74.7815 14.396 74.3335 14.396C73.6935 14.396 73.1868 14.6307 72.8135 15.1C72.4402 15.5587 72.2535 16.2147 72.2535 17.068C72.2535 17.9107 72.4402 18.5667 72.8135 19.036C73.1868 19.4947 73.6935 19.724 74.3335 19.724C75.2402 19.724 75.8322 19.3187 76.1095 18.508H78.5255C78.2802 19.468 77.7948 20.2307 77.0695 20.796C76.3442 21.3613 75.4375 21.644 74.3495 21.644C73.4962 21.644 72.7388 21.4573 72.0775 21.084C71.4162 20.7 70.8988 20.1667 70.5255 19.484C70.1522 18.7907 69.9655 17.9853 69.9655 17.068ZM88.4065 16.876C88.4065 17.196 88.3852 17.484 88.3425 17.74H81.8625C81.9158 18.38 82.1398 18.8813 82.5345 19.244C82.9292 19.6067 83.4145 19.788 83.9905 19.788C84.8225 19.788 85.4145 19.4307 85.7665 18.716H88.1825C87.9265 19.5693 87.4358 20.2733 86.7105 20.828C85.9852 21.372 85.0945 21.644 84.0385 21.644C83.1852 21.644 82.4172 21.4573 81.7345 21.084C81.0625 20.7 80.5345 20.1613 80.1505 19.468C79.7772 18.7747 79.5905 17.9747 79.5905 17.068C79.5905 16.1507 79.7772 15.3453 80.1505 14.652C80.5238 13.9587 81.0465 13.4253 81.7185 13.052C82.3905 12.6787 83.1638 12.492 84.0385 12.492C84.8812 12.492 85.6332 12.6733 86.2945 13.036C86.9665 13.3987 87.4838 13.916 87.8465 14.588C88.2198 15.2493 88.4065 16.012 88.4065 16.876ZM86.0865 16.236C86.0758 15.66 85.8678 15.2013 85.4625 14.86C85.0572 14.508 84.5612 14.332 83.9745 14.332C83.4198 14.332 82.9505 14.5027 82.5665 14.844C82.1932 15.1747 81.9638 15.6387 81.8785 16.236H86.0865ZM93.4335 21.644C92.7082 21.644 92.0575 21.516 91.4815 21.26C90.9055 20.9933 90.4468 20.636 90.1055 20.188C89.7748 19.74 89.5935 19.244 89.5615 18.7H91.8175C91.8602 19.0413 92.0255 19.324 92.3135 19.548C92.6122 19.772 92.9802 19.884 93.4175 19.884C93.8442 19.884 94.1748 19.7987 94.4095 19.628C94.6548 19.4573 94.7775 19.2387 94.7775 18.972C94.7775 18.684 94.6282 18.4707 94.3295 18.332C94.0415 18.1827 93.5775 18.0227 92.9375 17.852C92.2762 17.692 91.7322 17.5267 91.3055 17.356C90.8895 17.1853 90.5268 16.924 90.2175 16.572C89.9188 16.22 89.7695 15.7453 89.7695 15.148C89.7695 14.6573 89.9082 14.2093 90.1855 13.804C90.4735 13.3987 90.8788 13.0787 91.4015 12.844C91.9348 12.6093 92.5588 12.492 93.2735 12.492C94.3295 12.492 95.1722 12.7587 95.8015 13.292C96.4308 13.8147 96.7775 14.524 96.8415 15.42H94.6975C94.6655 15.068 94.5162 14.7907 94.2495 14.588C93.9935 14.3747 93.6468 14.268 93.2095 14.268C92.8042 14.268 92.4895 14.3427 92.2655 14.492C92.0522 14.6413 91.9455 14.8493 91.9455 15.116C91.9455 15.4147 92.0948 15.644 92.3935 15.804C92.6922 15.9533 93.1562 16.108 93.7855 16.268C94.4255 16.428 94.9535 16.5933 95.3695 16.764C95.7855 16.9347 96.1428 17.2013 96.4415 17.564C96.7508 17.916 96.9108 18.3853 96.9215 18.972C96.9215 19.484 96.7775 19.9427 96.4895 20.348C96.2122 20.7533 95.8068 21.0733 95.2735 21.308C94.7508 21.532 94.1375 21.644 93.4335 21.644Z" fill="white"/>
<defs>
<clipPath id="clip0_77_296">
<rect width="30" height="30" fill="white" transform="translate(0 0.5)"/>
</clipPath>
</defs>
</svg>
