<svg width="100" height="100" viewBox="0 0 100 100" fill="none" xmlns="http://www.w3.org/2000/svg">
<rect width="100" height="100" rx="15" fill="#1D4ED8"/>
<g clip-path="url(#clip0_56_784)">
<path d="M50 80C44.0666 80 38.2664 78.2405 33.3329 74.9441C28.3994 71.6477 24.5543 66.9623 22.2836 61.4805C20.013 55.9987 19.4189 49.9667 20.5765 44.1473C21.734 38.3279 24.5912 32.9824 28.7868 28.7868C32.9824 24.5912 38.3279 21.734 44.1473 20.5765C49.9667 19.4189 55.9987 20.013 61.4805 22.2836C66.9623 24.5543 71.6477 28.3994 74.9441 33.3329C78.2405 38.2664 80 44.0666 80 50C79.9914 57.9539 76.8279 65.5795 71.2037 71.2037C65.5795 76.8279 57.9539 79.9914 50 80ZM50 25C45.0555 25 40.222 26.4662 36.1108 29.2133C31.9995 31.9603 28.7952 35.8648 26.903 40.4329C25.0108 45.0011 24.5158 50.0277 25.4804 54.8773C26.445 59.7268 28.826 64.1814 32.3223 67.6777C35.8187 71.174 40.2732 73.555 45.1228 74.5196C49.9723 75.4843 54.9989 74.9892 59.5671 73.097C64.1353 71.2048 68.0397 68.0005 70.7868 63.8893C73.5338 59.778 75 54.9445 75 50C74.9927 43.3718 72.3565 37.0172 67.6696 32.3304C62.9828 27.6436 56.6282 25.0073 50 25ZM64.165 59.365C64.6603 58.9241 64.9602 58.3045 64.9986 57.6425C65.037 56.9805 64.8109 56.3303 64.37 55.835C63.9291 55.3397 63.3095 55.0399 62.6475 55.0014C61.9855 54.963 61.3353 55.1891 60.84 55.63C57.7838 58.2032 53.9863 59.7341 50 60C46.016 59.7343 42.2206 58.2053 39.165 55.635C38.6704 55.1934 38.0206 54.9664 37.3586 55.0039C36.6966 55.0414 36.0766 55.3404 35.635 55.835C35.1934 56.3296 34.9664 56.9794 35.0039 57.6414C35.0414 58.3034 35.3404 58.9234 35.835 59.365C39.8047 62.7563 44.7856 64.7378 50 65C55.2145 64.7378 60.1953 62.7563 64.165 59.365ZM55 45C55 47.5 57.2375 47.5 60 47.5C62.7625 47.5 65 47.5 65 45C65 43.6739 64.4732 42.4022 63.5355 41.4645C62.5979 40.5268 61.3261 40 60 40C58.6739 40 57.4022 40.5268 56.4645 41.4645C55.5268 42.4022 55 43.6739 55 45ZM47.5 45C47.5 44.337 47.2366 43.7011 46.7678 43.2322C46.2989 42.7634 45.6631 42.5 45 42.5H37.5C36.837 42.5 36.2011 42.7634 35.7322 43.2322C35.2634 43.7011 35 44.337 35 45C35 45.6631 35.2634 46.2989 35.7322 46.7678C36.2011 47.2366 36.837 47.5 37.5 47.5H45C45.6631 47.5 46.2989 47.2366 46.7678 46.7678C47.2366 46.2989 47.5 45.6631 47.5 45Z" fill="white"/>
</g>
<defs>
<clipPath id="clip0_56_784">
<rect width="60" height="60" fill="white" transform="translate(20 20)"/>
</clipPath>
</defs>
</svg>
