<svg width="100" height="100" viewBox="0 0 100 100" fill="none" xmlns="http://www.w3.org/2000/svg">
<rect width="100" height="100" rx="15" fill="#1D4ED8"/>
<g clip-path="url(#clip0_56_794)">
<path d="M66.4525 25.3517L50.79 20.1292C50.2772 19.9584 49.7228 19.9584 49.21 20.1292L33.545 25.3517C31.0552 26.1793 28.8896 27.7705 27.3556 29.8991C25.8216 32.0276 24.9974 34.5855 25 37.2092V50.0017C25 68.9092 48 79.3517 48.985 79.7867C49.3046 79.9287 49.6503 80.002 50 80.002C50.3497 80.002 50.6955 79.9287 51.015 79.7867C52 79.3517 75 68.9092 75 50.0017V37.2092C75.0024 34.5852 74.1778 32.0271 72.6434 29.8985C71.109 27.7698 68.9427 26.1789 66.4525 25.3517ZM70 50.0017C70 63.6392 54.2025 72.5842 50 74.7242C45.7925 72.5917 30 63.6742 30 50.0017V37.2092C30 35.6352 30.4952 34.1011 31.4154 32.8241C32.3357 31.5472 33.6343 30.5921 35.1275 30.0942L50 25.1367L64.87 30.0942C66.3636 30.5917 67.6629 31.5466 68.5836 32.8236C69.5043 34.1005 69.9999 35.6349 70 37.2092V50.0017Z" fill="white"/>
</g>
<defs>
<clipPath id="clip0_56_794">
<rect width="60" height="60" fill="white" transform="translate(20 20)"/>
</clipPath>
</defs>
</svg>
