<svg width="100" height="100" viewBox="0 0 100 100" fill="none" xmlns="http://www.w3.org/2000/svg">
<rect width="100" height="100" rx="15" fill="#1D4ED8"/>
<g clip-path="url(#clip0_56_808)">
<path d="M76.9325 39.3035C75.7602 37.9525 74.3113 36.8692 72.684 36.1269C71.0566 35.3846 69.2887 35.0006 67.5 35.001H57.5275L58.3675 29.8985C58.6647 28.1016 58.3061 26.2578 57.3572 24.7033C56.4082 23.1488 54.9321 21.9873 53.198 21.4305C51.4639 20.8737 49.5875 20.9587 47.9109 21.6702C46.2344 22.3816 44.8694 23.672 44.065 25.306L39.28 35.001H32.5C29.186 35.0049 26.0089 36.3232 23.6655 38.6665C21.3222 41.0099 20.004 44.187 20 47.501L20 60.001C20.004 63.315 21.3222 66.4921 23.6655 68.8354C26.0089 71.1788 29.186 72.497 32.5 72.501H65.75C68.7587 72.4887 71.6629 71.3967 73.9345 69.4239C76.2061 67.451 77.6939 64.7283 78.1275 61.751L79.89 49.251C80.1382 47.4778 80.0026 45.672 79.4924 43.9558C78.9821 42.2396 78.1091 40.653 76.9325 39.3035ZM25 60.001V47.501C25 45.5119 25.7902 43.6042 27.1967 42.1977C28.6032 40.7911 30.5109 40.001 32.5 40.001H37.5V67.501H32.5C30.5109 67.501 28.6032 66.7108 27.1967 65.3043C25.7902 63.8978 25 61.9901 25 60.001ZM74.9275 48.5485L73.1625 61.0485C72.9044 62.8334 72.0143 64.4665 70.654 65.6507C69.2937 66.8348 67.5535 67.4914 65.75 67.501H42.5V39.336C42.7356 39.1307 42.9306 38.8831 43.075 38.606L48.5475 27.5185C48.7527 27.1483 49.0429 26.8321 49.3941 26.5959C49.7453 26.3597 50.1475 26.2101 50.5678 26.1596C50.988 26.1091 51.4142 26.159 51.8114 26.3053C52.2086 26.4516 52.5654 26.69 52.8525 27.001C53.0981 27.2866 53.2777 27.6229 53.3784 27.9859C53.4791 28.3489 53.4984 28.7296 53.435 29.101L52.115 37.101C52.0571 37.4584 52.0775 37.8242 52.1748 38.173C52.2721 38.5218 52.4441 38.8453 52.6788 39.121C52.9134 39.3968 53.2052 39.6184 53.5339 39.7703C53.8626 39.9222 54.2204 40.0009 54.5825 40.001H67.5C68.5735 40.0008 69.6345 40.2311 70.6114 40.6763C71.5882 41.1215 72.4581 41.7712 73.1622 42.5816C73.8664 43.3919 74.3883 44.3439 74.6929 45.3733C74.9974 46.4027 75.0774 47.4855 74.9275 48.5485Z" fill="white"/>
</g>
<defs>
<clipPath id="clip0_56_808">
<rect width="60" height="60" fill="white" transform="translate(20 20)"/>
</clipPath>
</defs>
</svg>
